<svg width="185" height="80" viewBox="0 0 185 80" fill="none" xmlns="http://www.w3.org/2000/svg">
<path fill-rule="evenodd" clip-rule="evenodd" d="M112.345 38.1714C104.008 23.1646 119.984 4.6104 132.959 13.0933C144.894 20.8968 133.774 36.3842 125.606 29.637C122.586 27.1424 124.03 23.2033 125.212 22.6782C126.394 22.153 127.707 21.3652 128.626 22.153C129.545 22.9407 132.171 22.9407 132.565 21.1025C132.959 19.2643 132.959 17.5573 131.383 16.507C124.941 12.2127 119.381 19.3108 120.617 24.2537C121.667 28.4552 126 36.5959 126 36.5959C126.569 38.084 127.138 39.572 127.707 41.0601C134.064 37.5687 134.272 36.2458 137.554 33.8385C145.006 19.3732 163.631 22.5606 161.319 31.3439C154.587 27.1959 142.071 37.4015 145.826 42.7669C149.638 48.2133 165.122 26.5212 168.803 32.6569C174.913 42.8389 164.059 49.2962 162.107 53.6648C159.77 58.8967 163.692 66.671 168.803 64.4313C171.299 63.3377 172.508 59.8079 171.87 56.9287C171.232 54.0496 169.035 53.5525 167.753 53.7961C166.637 54.008 166.105 54.6626 165.777 54.0365C165.417 53.3468 167.77 49.997 169.426 49.2492C183.415 42.9312 188.215 67.4923 169.976 69.6763C162.269 70.5989 154.57 65.8339 154.229 56.2908C153.943 48.2868 162.304 38.2807 157.249 42.1104C151.595 46.3946 139.158 61.6755 136.241 40.1409C136.241 40.1409 135.585 41.3226 134.403 42.1104C133.221 42.8983 129.807 44.3426 129.807 44.3426L128.495 44.6051C128.495 44.6051 128.932 49.5004 128.495 51.8266C125.595 67.2281 102.534 71.4804 101.578 57.3411C100.771 45.4045 116.134 47.8102 114.314 43.1609C113.133 40.1409 112.345 38.1714 112.345 38.1714ZM112.813 50.4346C115.143 49.4558 116.121 49.3161 116.121 49.3161C118.548 63.3394 104.877 62.9677 106.475 56.3058C107.201 53.2823 110.118 51.5663 112.813 50.4346Z" fill="#373435"/>
<path fill-rule="evenodd" clip-rule="evenodd" d="M26.4128 41.862C1.50376 8.8277 43.7375 -13.8776 53.8017 13.9025C56.1168 20.293 53.2311 24.9341 53.2311 24.9341C58.2029 19.5392 67.6221 2.29459 78.0477 5.89593C84.5254 8.13327 87.2714 17.403 82.1258 21.1991C77.6077 24.5326 74.5756 22.7915 73.3922 21.7007C69.462 18.0785 74.1801 19.0474 74.3871 16.9207C74.5957 14.7742 71.3775 13.2998 68.2488 16.0531C66.7507 17.3713 65.8602 17.7284 64.3452 19.221C53.4066 29.9952 41.2051 34.6126 37.9991 21.1704C37.739 20.0793 37.0777 18.4411 38.5804 19.296C44.9226 22.9053 51.6376 17.9999 46.101 10.2888C44.5245 8.09321 39.5366 5.53383 34.4012 10.2888C29.2659 15.0437 31.1079 20.9608 32.6296 25.5257C34.1513 30.0904 40.5732 38.2583 43.721 43.3837C55.5541 62.6501 31.2076 85.406 11.5772 68.8704C-5.20441 54.7346 12.1985 36.6419 22.9751 46.8246C25.1257 48.8567 24.6312 51.7083 24.701 51.7524C24.7709 51.7966 20.5383 50.3274 18.4197 53.4224C10.1469 65.5086 29.9171 76.0547 34.5914 59.3605C35.8918 54.7161 29.2059 46.3309 26.4128 41.862Z" fill="#373435"/>
<path fill-rule="evenodd" clip-rule="evenodd" d="M54.5623 53.6545C62.4447 63.1131 70.021 45.9054 75.2943 41.2914C73.1623 49.346 70.3467 55.3651 79.8592 59.5506C77.6555 41.9229 87.6155 44.4885 87.1563 38.5199C86.8864 35.0084 83.9994 31.2956 80.2418 32.5482C73.5199 34.7885 64.1699 48.8995 63.1644 49.1016C56.8412 50.3726 62.2505 32.1375 74.3747 30.2432C77.7272 29.7195 78.0681 28.7326 75.0033 26.1574C63.5676 16.5478 43.6122 40.5139 54.5623 53.6545Z" fill="#373435"/>
<path fill-rule="evenodd" clip-rule="evenodd" d="M91.9933 25.8294C92.0572 13.2279 100.827 9.42941 108.668 17.1635C108.668 17.1635 109.86 18.8094 108.274 19.0019C102.07 19.7541 101.899 31.0739 100.028 42.5874C99.1206 48.1711 96.8991 53.4349 95.1445 58.2603L93.5688 62.5932C93.5688 62.5932 97.114 64.6938 101.972 66.926C106.83 69.1582 112.87 69.552 116.021 69.4207C119.172 69.2893 124.556 66.4008 124.556 66.4008C124.556 66.4008 125.475 69.0268 123.505 72.178C117.42 81.9135 105.712 80.5444 94.2253 71.9153C92.3683 70.5201 90.2863 69.0269 90.2863 69.0269C87.938 73.7239 80.0402 74.5581 76.3686 70.7337C72.8656 67.0846 76.8886 59.4195 81.8833 59.8358C85.0345 60.0985 86.1362 59.9044 86.1362 59.9044C88.3556 54.4659 91.9417 35.9915 91.9933 25.8294ZM82.4607 64.1183C80.0104 64.0808 78.6106 65.5742 79.0415 66.9815C80.0093 70.1425 85.1048 67.8608 85.6629 64.1673L82.4607 64.1183Z" fill="#373435"/>
<path fill-rule="evenodd" clip-rule="evenodd" d="M114.053 7.29507C114.854 3.87178 118.475 0.903801 122.102 1.44782C125.261 1.92155 125.304 6.82369 123.165 7.44699C119.548 8.50116 117.754 8.15856 111.851 13.8256L114.053 7.29507Z" fill="#802E2F"/>
<path fill-rule="evenodd" clip-rule="evenodd" d="M141.922 16.7872C141.922 16.7872 141.011 13.0663 141.314 11.2438C141.787 8.40541 142.299 4.46253 145.871 3.34622C149.028 2.35975 150.739 6.32855 149.288 8.58604C147.418 11.4955 145.473 11.3166 143.744 13.6737C142.909 14.8128 141.922 16.7872 141.922 16.7872Z" fill="#802E2F"/>
<path fill-rule="evenodd" clip-rule="evenodd" d="M153.237 12.6866C161.608 11.5703 163.078 18.8257 159.691 20.1284C158.704 20.5081 156.426 20.3562 153.692 19.7487C151.23 19.2015 147.791 18.6641 145.719 20.7359C145.111 21.3435 144.124 22.4825 144.124 22.4825C143.001 19.2534 150.279 13.0809 153.237 12.6866Z" fill="#802E2F"/>
<path fill-rule="evenodd" clip-rule="evenodd" d="M149.971 69.8674C148.908 71.6141 146.023 72.2215 144.732 71.6901C140.652 70.0101 140.754 66.1928 138.47 64.6119C136.988 63.5854 133.993 62.6891 135.923 62.0459C140.754 60.4357 153.482 64.1 149.971 69.8674Z" fill="#802E2F"/>
<path fill-rule="evenodd" clip-rule="evenodd" d="M2.90078 35.5036C-3.95181 40.3007 3.0964 42.8702 6.07573 40.8842C7.66278 39.8262 8.36814 38.6798 10.3959 38.3274C12.4237 37.9747 15.9505 39.2089 15.9505 39.2089C12.1083 32.7402 4.96264 34.0601 2.90078 35.5036Z" fill="#802E2F"/>
<path fill-rule="evenodd" clip-rule="evenodd" d="M4.49062 28.7116C6.49762 29.4305 10.406 29.2383 13.3935 30.833C14.681 31.5204 15.4215 34.2716 15.4215 34.2716L15.2452 29.9514C14.6958 23.8361 8.21002 20.9848 4.49126 22.2488C1.4425 23.2852 0.4676 27.2707 4.49062 28.7116Z" fill="#802E2F"/>
<path fill-rule="evenodd" clip-rule="evenodd" d="M110.398 39.0438C102.061 24.037 118.038 5.48284 131.012 13.9658C142.947 21.7692 131.827 37.2566 123.66 30.5095C120.64 28.0148 122.084 24.0758 123.266 23.5506C124.447 23.0255 125.76 22.2376 126.679 23.0255C127.598 23.8133 130.224 23.8133 130.618 21.9749C131.012 20.1368 131.012 18.4299 129.437 17.3796C122.995 13.0851 117.435 20.1835 118.67 25.1261C119.721 29.3278 124.053 37.4683 124.053 37.4683C124.622 38.9564 125.191 40.4445 125.76 41.9325C132.118 38.4413 132.325 37.1182 135.608 34.711C143.06 20.2456 161.684 23.4332 159.373 32.2163C152.641 28.0686 140.124 38.2742 143.88 43.6393C147.692 49.0857 163.176 27.3939 166.857 33.5293C172.966 43.7113 162.112 50.1686 160.161 54.5372C157.824 59.7693 161.746 67.5437 166.857 65.3038C169.353 64.2102 170.562 60.6804 169.924 57.8013C169.286 54.922 167.089 54.425 165.807 54.6686C164.691 54.8805 164.158 55.5351 163.831 54.9092C163.47 54.2195 165.824 50.8695 167.48 50.1217C181.469 43.8039 186.269 68.3649 168.03 70.5487C160.322 71.4716 152.624 66.7066 152.283 57.1632C151.997 49.1592 160.358 39.1531 155.303 42.9828C149.648 47.267 137.211 62.5479 134.295 41.0135C134.295 41.0135 133.638 42.1952 132.457 42.9828C131.275 43.7707 127.861 45.215 127.861 45.215L126.548 45.4775C126.548 45.4775 126.986 50.3728 126.548 52.6991C123.649 68.1005 100.588 72.3528 99.6316 58.2136C98.8247 46.2771 114.187 48.6827 112.368 44.0334C111.186 41.0135 110.398 39.0438 110.398 39.0438ZM110.866 51.307C113.196 50.3284 114.175 50.1885 114.175 50.1885C116.602 64.2121 102.93 63.8401 104.529 57.1782C105.255 54.1548 108.172 52.4387 110.866 51.307Z" fill="#0099DB"/>
<path fill-rule="evenodd" clip-rule="evenodd" d="M24.4664 42.7345C-0.442815 9.70019 41.7909 -13.0051 51.8551 14.7752C54.1702 21.1657 51.2845 25.8068 51.2845 25.8068C56.2565 20.4117 65.6758 3.16708 76.1014 6.76842C82.5788 9.00576 85.325 18.2755 80.1795 22.0716C75.6613 25.4051 72.6292 23.664 71.4459 22.5734C67.5156 18.9512 72.2337 19.9199 72.4405 17.7931C72.6494 15.6467 69.4309 14.1725 66.3023 16.9256C64.8043 18.244 63.9139 18.6011 62.3986 20.0935C51.4602 30.8679 39.2588 35.4851 36.0527 22.0429C35.7926 20.9518 35.1314 19.3136 36.634 20.1685C42.9762 23.7777 49.6913 18.8724 44.1547 11.1615C42.5779 8.96569 37.5901 6.40631 32.4548 11.1613C27.3193 15.9164 29.1616 21.8335 30.6833 26.3982C32.205 30.9631 38.6269 39.131 41.7746 44.2562C53.6078 63.5226 29.2612 86.2785 9.6308 69.7429C-7.15076 55.607 10.2522 37.5146 21.0286 47.6973C23.1791 49.7294 22.6846 52.5808 22.7547 52.6249C22.8245 52.6691 18.5917 51.1999 16.4731 54.2951C8.20037 66.3811 27.9705 76.9271 32.6451 60.233C33.9454 55.5888 27.2596 47.2036 24.4664 42.7345Z" fill="#0099DB"/>
<path fill-rule="evenodd" clip-rule="evenodd" d="M52.616 54.5269C60.4981 63.9856 68.0747 46.7781 73.3477 42.1639C71.2158 50.2185 68.4001 56.2376 77.9126 60.4231C75.7091 42.7954 85.6691 45.361 85.21 39.3924C84.9398 35.8811 82.053 32.1683 78.2953 33.4207C71.5736 35.6612 62.2235 49.772 61.218 49.9741C54.8947 51.2451 60.3042 33.0099 72.4283 31.1159C75.7809 30.592 76.1218 29.6051 73.0569 27.0298C61.6213 17.4203 41.6658 41.3866 52.616 54.5269Z" fill="#0099DB"/>
<path fill-rule="evenodd" clip-rule="evenodd" d="M90.0468 26.7018C90.1108 14.1003 98.8802 10.3021 106.722 18.0359C106.722 18.0359 107.914 19.6821 106.328 19.8743C100.124 20.6266 99.9528 31.9464 98.0816 43.4598C97.1742 49.0435 94.9525 54.3076 93.1979 59.1328L91.6224 63.4656C91.6224 63.4656 95.1677 65.5665 100.026 67.7985C104.884 70.0307 110.924 70.4245 114.075 70.2931C117.226 70.162 122.609 67.2733 122.609 67.2733C122.609 67.2733 123.528 69.8993 121.559 73.0505C115.474 82.786 103.765 81.4168 92.2789 72.7878C90.4217 71.3927 88.3399 69.8993 88.3399 69.8993C85.9914 74.5964 78.0936 75.4305 74.4222 71.6061C70.919 67.9572 74.942 60.2922 79.9367 60.7083C83.0879 60.9709 84.1899 60.7768 84.1899 60.7768C86.409 55.3384 89.9953 36.8639 90.0468 26.7018ZM80.5142 64.9908C78.0638 64.9533 76.6643 66.4467 77.0952 67.8542C78.063 71.0152 83.1584 68.7335 83.7163 65.04L80.5142 64.9908Z" fill="#0099DB"/>
<path fill-rule="evenodd" clip-rule="evenodd" d="M110.398 39.0438C102.061 24.037 118.038 5.48284 131.012 13.9658C142.947 21.7692 131.827 37.2566 123.66 30.5095C120.64 28.0148 122.084 24.0758 123.266 23.5506C124.447 23.0255 125.76 22.2376 126.679 23.0255C127.598 23.8133 130.224 23.8133 130.618 21.9749C131.012 20.1368 131.012 18.4299 129.437 17.3796C122.995 13.0851 117.435 20.1835 118.67 25.1261C119.721 29.3278 124.053 37.4683 124.053 37.4683C124.622 38.9564 125.191 40.4445 125.76 41.9325C132.118 38.4413 132.325 37.1182 135.608 34.711C143.06 20.2456 161.684 23.4332 159.373 32.2163C152.641 28.0686 140.124 38.2742 143.88 43.6393C147.692 49.0857 163.176 27.3939 166.857 33.5293C172.966 43.7113 162.112 50.1686 160.161 54.5372C157.824 59.7693 161.746 67.5437 166.857 65.3038C169.353 64.2102 170.562 60.6804 169.924 57.8013C169.286 54.922 167.089 54.425 165.807 54.6686C164.691 54.8805 164.158 55.5351 163.831 54.9092C163.47 54.2195 165.824 50.8695 167.48 50.1217C181.469 43.8039 186.269 68.3649 168.03 70.5487C160.322 71.4716 152.624 66.7066 152.283 57.1632C151.997 49.1592 160.358 39.1531 155.303 42.9828C149.648 47.267 137.211 62.5479 134.295 41.0135C134.295 41.0135 133.638 42.1952 132.457 42.9828C131.275 43.7707 127.861 45.215 127.861 45.215L126.548 45.4775C126.548 45.4775 126.986 50.3728 126.548 52.6991C123.649 68.1005 100.588 72.3528 99.6316 58.2136C98.8247 46.2771 114.187 48.6827 112.368 44.0334C111.186 41.0135 110.398 39.0438 110.398 39.0438ZM110.866 51.307C113.196 50.3284 114.175 50.1885 114.175 50.1885C116.602 64.2121 102.93 63.8401 104.529 57.1782C105.255 54.1548 108.172 52.4387 110.866 51.307Z" fill="#0099DB"/>
<path fill-rule="evenodd" clip-rule="evenodd" d="M24.4664 42.7345C-0.442815 9.70019 41.7909 -13.0051 51.8551 14.7752C54.1702 21.1657 51.2845 25.8068 51.2845 25.8068C56.2565 20.4117 65.6758 3.16708 76.1014 6.76842C82.5788 9.00576 85.325 18.2755 80.1795 22.0716C75.6613 25.4051 72.6292 23.664 71.4459 22.5734C67.5156 18.9512 72.2337 19.9199 72.4405 17.7931C72.6494 15.6467 69.4309 14.1725 66.3023 16.9256C64.8043 18.244 63.9139 18.6011 62.3986 20.0935C51.4602 30.8679 39.2588 35.4851 36.0527 22.0429C35.7926 20.9518 35.1314 19.3136 36.634 20.1685C42.9762 23.7777 49.6913 18.8724 44.1547 11.1615C42.5779 8.96569 37.5901 6.40631 32.4548 11.1613C27.3193 15.9164 29.1616 21.8335 30.6833 26.3982C32.205 30.9631 38.6269 39.131 41.7746 44.2562C53.6078 63.5226 29.2612 86.2785 9.6308 69.7429C-7.15076 55.607 10.2522 37.5146 21.0286 47.6973C23.1791 49.7294 22.6846 52.5808 22.7547 52.6249C22.8245 52.6691 18.5917 51.1999 16.4731 54.2951C8.20037 66.3811 27.9705 76.9271 32.6451 60.233C33.9454 55.5888 27.2596 47.2036 24.4664 42.7345Z" fill="#0099DB"/>
<path fill-rule="evenodd" clip-rule="evenodd" d="M52.616 54.5269C60.4981 63.9856 68.0747 46.7781 73.3477 42.1639C71.2158 50.2185 68.4001 56.2376 77.9126 60.4231C75.7091 42.7954 85.6691 45.361 85.21 39.3924C84.9398 35.8811 82.053 32.1683 78.2953 33.4207C71.5736 35.6612 62.2235 49.772 61.218 49.9741C54.8947 51.2451 60.3042 33.0099 72.4283 31.1159C75.7809 30.592 76.1218 29.6051 73.0569 27.0298C61.6213 17.4203 41.6658 41.3866 52.616 54.5269Z" fill="#0099DB"/>
<path fill-rule="evenodd" clip-rule="evenodd" d="M90.0468 26.7018C90.1108 14.1003 98.8802 10.3021 106.722 18.0359C106.722 18.0359 107.914 19.6821 106.328 19.8743C100.124 20.6266 99.9528 31.9464 98.0816 43.4598C97.1742 49.0435 94.9525 54.3076 93.1979 59.1328L91.6224 63.4656C91.6224 63.4656 95.1677 65.5665 100.026 67.7985C104.884 70.0307 110.924 70.4245 114.075 70.2931C117.226 70.162 122.609 67.2733 122.609 67.2733C122.609 67.2733 123.528 69.8993 121.559 73.0505C115.474 82.786 103.765 81.4168 92.2789 72.7878C90.4217 71.3927 88.3399 69.8993 88.3399 69.8993C85.9914 74.5964 78.0936 75.4305 74.4222 71.6061C70.919 67.9572 74.942 60.2922 79.9367 60.7083C83.0879 60.9709 84.1899 60.7768 84.1899 60.7768C86.409 55.3384 89.9953 36.8639 90.0468 26.7018ZM80.5142 64.9908C78.0638 64.9533 76.6643 66.4467 77.0952 67.8542C78.063 71.0152 83.1584 68.7335 83.7163 65.04L80.5142 64.9908Z" fill="#0099DB"/>
<path fill-rule="evenodd" clip-rule="evenodd" d="M179.813 36.1183C179.068 36.4161 175.626 37.9346 174.832 38.9924C174.039 40.0502 171.92 43.0478 171.92 43.0478C173.679 28.9747 179.817 27.5962 182.595 29.6818C184.26 30.932 184.447 33.7875 182.517 34.8935C182.377 34.9735 180.557 35.8205 179.813 36.1183Z" fill="#802E2F"/>
<path fill-rule="evenodd" clip-rule="evenodd" d="M168.306 61.5767C168.306 61.5767 169.863 60.7796 168.192 60.3999C166.787 60.0807 164.206 59.6736 163.485 57.2108C163.303 56.5916 163.561 55.6544 163.219 55.8063C161.505 56.568 162.074 63.3745 168.306 61.5767Z" fill="#802E2F"/>
<path fill-rule="evenodd" clip-rule="evenodd" d="M184.981 43.5063C184.803 44.9866 182.43 46.3043 180.813 46.0232C177.722 45.4856 178.176 44.3179 174.416 45.6716L175.892 43.9142C179.661 39.3457 185.375 40.2255 184.981 43.5063Z" fill="#802E2F"/>
<path fill-rule="evenodd" clip-rule="evenodd" d="M140.667 33.8292C144.05 28.6561 149.2 25.4655 156.365 27.3469C159.201 28.0915 151.835 25.8319 146.681 29.6117C141.404 33.4824 140.179 36.1709 139.105 42.03C138.928 37.6811 138.903 37.7498 140.667 33.8292Z" fill="#FEFEFE"/>
<path fill-rule="evenodd" clip-rule="evenodd" d="M162.926 37.2657L165.269 35.2351C165.269 35.2351 161.052 40.9365 160.583 42.108C158.053 48.4314 156.922 51.3216 157.849 58.2749C155.13 50.1181 156.98 43.721 162.926 37.2657Z" fill="#FEFEFE"/>
<path fill-rule="evenodd" clip-rule="evenodd" d="M178.487 59.3601C177.918 61.3842 177.249 62.0649 177.249 62.0649C177.341 58.5902 178.525 57.4988 176.327 54.1072C174.057 50.605 170.314 50.5161 170.348 50.5133C175.767 50.0602 180.235 53.1378 178.487 59.3601Z" fill="#FEFEFE"/>
<path fill-rule="evenodd" clip-rule="evenodd" d="M130.796 70.2404C130.881 71.911 131.165 73.7239 131.89 74.5612C132.666 75.4579 134.608 76.57 136.227 75.0311C139.891 71.5463 133.524 65.3215 129.62 64.0203C131.2 66.7284 130.658 67.4968 130.796 70.2404Z" fill="#802E2F"/>
<path fill-rule="evenodd" clip-rule="evenodd" d="M105.417 3.56135C103.064 5.65321 104.893 7.99168 107.022 9.64644C108.164 10.5335 108.648 13.3309 108.648 13.3309C111.41 8.66961 109.118 0.271976 105.417 3.56135Z" fill="#802E2F"/>
<path fill-rule="evenodd" clip-rule="evenodd" d="M126.723 24.2299L127.402 24.7726C127.402 24.7726 128.085 25.343 128.634 25.5553C130.992 26.4696 132.846 25.1382 134.313 23.5237L134.617 23.0154C133.806 27.4768 128.593 28.7451 126.723 24.2299Z" fill="#FEFEFE"/>
<path fill-rule="evenodd" clip-rule="evenodd" d="M95.2079 20.8147C95.383 20.4066 96.1413 18.7734 96.1413 18.7734L94.6249 26.1223C93.9695 34.4155 93.9766 45.6614 91.1254 53.359C91.1254 53.359 91.7086 47.8184 91.8254 47.0601C93.0726 38.9528 91.8157 28.7301 95.2079 20.8147Z" fill="#FEFEFE"/>
<path fill-rule="evenodd" clip-rule="evenodd" d="M114.109 32.8932C112.591 27.1368 112.607 24.1999 115.146 18.8525C111.782 36.3469 125.099 42.6936 119.694 55.8689C119.816 45.0188 118.212 42.4283 114.109 32.8932Z" fill="#FEFEFE"/>
<path fill-rule="evenodd" clip-rule="evenodd" d="M104.048 71.8872L101.89 70.5798C109.048 72.9894 114.403 73.9943 121.593 70.5674C115.954 74.7132 110.536 74.8792 104.048 71.8872Z" fill="#FEFEFE"/>
<path fill-rule="evenodd" clip-rule="evenodd" d="M51.8605 67.5534C52.4988 71.5961 58.2802 70.7478 60.0582 68.2585C63.4487 63.5117 62.3692 63.681 68.3444 61.3828C66.0499 58.9247 50.6186 59.6884 51.8605 67.5534Z" fill="#802E2F"/>
<path fill-rule="evenodd" clip-rule="evenodd" d="M63.9368 74.3408C66.5071 78.1958 70.676 72.5776 69.1376 69.7571C68.453 68.5021 69.1766 66.106 69.54 64.7403C66.8812 66.5266 61.3755 70.4995 63.9368 74.3408Z" fill="#802E2F"/>
<path fill-rule="evenodd" clip-rule="evenodd" d="M59.0966 6.40482C58.9854 -0.696091 53.1908 -0.986205 51.7767 1.20271C49.7022 4.41324 55.6915 5.30993 56.9674 10.0576C57.0643 10.4182 56.9786 12.6843 56.9786 12.6843C58.3319 12.6843 58.9804 7.41508 59.0966 6.40482Z" fill="#802E2F"/>
<path fill-rule="evenodd" clip-rule="evenodd" d="M43.6615 12.0593C40.8709 9.44696 37.6214 10.803 34.9548 12.1362C37.1296 11.8574 41.2246 12.1747 42.6345 15.1429C42.8989 15.6996 43.4303 17.4527 43.4303 17.4527C45.5911 15.7035 45.2941 13.9863 43.6615 12.0593Z" fill="#802E2F"/>
<path fill-rule="evenodd" clip-rule="evenodd" d="M30.4075 6.14197C24.6897 14.0834 23.3932 15.9835 24.5697 26.0874C24.9172 29.0708 27.5681 36.0114 28.7397 39.2916C20.4813 29.4237 18.362 13.4736 30.4075 6.14197Z" fill="#FEFEFE"/>
<path fill-rule="evenodd" clip-rule="evenodd" d="M48.7545 20.8057L49.7969 19.2767C49.1089 21.126 49.0928 22.9194 46.4957 23.8133C44.111 24.6344 42.6223 23.8348 40.7625 22.6126C42.7997 23.5005 46.7168 23.7943 48.7545 20.8057Z" fill="#FEFEFE"/>
<path fill-rule="evenodd" clip-rule="evenodd" d="M71.5138 8.13473C73.7282 8.1688 74.6517 8.15531 76.8117 8.95815C79.3533 9.90284 81.8081 14.8264 81.5013 17.9433C81.4569 18.3937 81.9952 16.4443 82.0382 16.0818C82.7965 9.67679 76.3 4.94435 71.5138 8.13473Z" fill="#FEFEFE"/>
<path fill-rule="evenodd" clip-rule="evenodd" d="M62.0909 31.0743C62.4986 30.7283 69.5601 26.7907 69.5655 26.6924C69.6349 25.4017 53.9947 29.2899 54.4035 42.6124C54.4772 45.0188 55.6484 47.5036 55.6484 47.5036C55.5893 45.4878 55.2741 43.6074 55.5064 41.2709C56.1755 37.7216 57.6214 34.8681 62.0909 31.0743Z" fill="#FEFEFE"/>
<path fill-rule="evenodd" clip-rule="evenodd" d="M81.7355 40.4113L83.2518 39.6532C78.88 43.9233 77.144 45.0439 76.4279 51.6676L76.3114 53.1257C75.5336 47.6032 76.0783 43.0514 81.7355 40.4113Z" fill="#FEFEFE"/>
<path fill-rule="evenodd" clip-rule="evenodd" d="M19.247 47.5861L17.4864 47.4661C17.4864 47.4661 15.6857 47.306 14.5254 47.5861C9.53246 48.7913 7.98076 53.1584 7.40311 57.5491L7.48324 58.7496C6.67247 57.0002 6.37892 55.0131 6.92294 53.1079C8.49349 47.6098 14.1788 44.8465 19.247 47.5861Z" fill="#FEFEFE"/>
<path fill-rule="evenodd" clip-rule="evenodd" d="M20.3588 56.2252C20.3588 56.2252 20.0944 55.2555 19.6534 57.195C18.1026 64.0186 24.4673 68.1254 28.9992 63.8957C24.1472 63.3849 20.9075 61.7129 20.3588 56.2252Z" fill="#802E2F"/>
</svg>
